# xmcd CD database file
#
# Track frame offsets:
#	182
#	16500
#	35390
#	50500
#	66075
#	78045
#	91167
#	106272
#	117785
#	130332
#	142832
#	157342
#
# Disc length: 2265 seconds
#
# Revision: 2
# Processed by: cddbd v1.4PL0 Copyright (c) Steve Scherf et al.
# Submitted via: CDex 1.50
#
DISCID=8c08d70c
DTITLE=Tina Turner - Keeps On Rockin'
DYEAR=1974
DGENRE=Country
TTITLE0=Lay It Down
TTITLE1=Lovin' Him Was Easier
TTITLE2=Good Hearted Woman
TTITLE3=If This Was Our Last Time
TTITLE4=Stand By Your Man
TTITLE5=Freedom To Stay
TTITLE6=We Had It All
TTITLE7=Soul Deep
TTITLE8=If It's Alright With You
TTITLE9=You Ain't Woman Enough
TTITLE10=Medley: Lay It Down - Lovin' Him Was Easier
TTITLE11=Medley: Soul Deep - You Ain't Woman Enough
EXTD=YEAR: 1974
EXTT0=
EXTT1=
EXTT2=
EXTT3=
EXTT4=
EXTT5=
EXTT6=
EXTT7=
EXTT8=
EXTT9=
EXTT10=
EXTT11=
PLAYORDER=
